<svg width="400" height="400" viewBox="0 0 400 400" fill="none" xmlns="http://www.w3.org/2000/svg">
<rect width="400" height="400" rx="20" fill="#020617"/>
<path fill-rule="evenodd" clip-rule="evenodd" d="M400 227.406V380C400 391.046 391.046 400 380 400H131.662L62 279.342L337.989 120L400 227.406Z" fill="black"/>
<rect width="79.7559" height="79.7559" transform="matrix(0.86514 0.50153 -0.86514 0.50153 131 160)" fill="#312E81"/>
<path d="M62 200L131 240V320L62 280V200Z" fill="#1E1B4B"/>
<rect width="79.7559" height="80" transform="matrix(0.86514 -0.50153 0 1 131 240)" fill="#0F172A"/>
<rect width="79.7559" height="80" transform="matrix(0.86514 -0.50153 0 1 62 120)" fill="#0F172A"/>
<path d="M269 80L338 120V200L269 160V80Z" fill="#1E1B4B"/>
<rect width="79.7559" height="79.7559" transform="matrix(0.86514 0.50153 -0.86514 0.50153 200 280)" fill="#312E81"/>
<rect width="79.7559" height="79.7559" transform="matrix(0.86514 0.50153 -0.86514 0.50153 269 160)" fill="#312E81"/>
<path d="M200 200L269 240V320L200 280V200Z" fill="#1E1B4B"/>
<rect width="79.7559" height="80" transform="matrix(0.86514 -0.50153 0 1 269 240)" fill="#0F172A"/>
<rect width="79.7559" height="79.7559" transform="matrix(0.86514 0.50153 -0.86514 0.50153 200 40)" fill="#312E81"/>
<path d="M131 80L200 120V200L131 160V80Z" fill="#1E1B4B"/>
<rect width="79.7559" height="80" transform="matrix(0.86514 -0.50153 0 1 200 120)" fill="#0F172A"/>
</svg>
