<svg width="276" height="320" viewBox="0 0 276 320" fill="none" xmlns="http://www.w3.org/2000/svg">
<rect width="79.7559" height="79.7559" transform="matrix(0.86514 0.50153 -0.86514 0.50153 69 120)" fill="#312E81"/>
<path d="M0 160L69 200V280L0 240V160Z" fill="#1E1B4B"/>
<rect width="79.7559" height="80" transform="matrix(0.86514 -0.50153 0 1 69 200)" fill="#0F172A"/>
<rect width="79.7559" height="80" transform="matrix(0.86514 -0.50153 0 1 0 80)" fill="#0F172A"/>
<path d="M207 40L276 80V160L207 120V40Z" fill="#1E1B4B"/>
<rect width="79.7559" height="79.7559" transform="matrix(0.86514 0.50153 -0.86514 0.50153 138 240)" fill="#312E81"/>
<rect width="79.7559" height="79.7559" transform="matrix(0.86514 0.50153 -0.86514 0.50153 207 120)" fill="#312E81"/>
<path d="M138 160L207 200V280L138 240V160Z" fill="#1E1B4B"/>
<rect width="79.7559" height="80" transform="matrix(0.86514 -0.50153 0 1 207 200)" fill="#0F172A"/>
<rect width="79.7559" height="79.7559" transform="matrix(0.86514 0.50153 -0.86514 0.50153 138 0)" fill="#312E81"/>
<path d="M69 40L138 80V160L69 120V40Z" fill="#1E1B4B"/>
<rect width="79.7559" height="80" transform="matrix(0.86514 -0.50153 0 1 138 80)" fill="#0F172A"/>
</svg>
